<mxfile host="app.diagrams.net" modified="2021-09-02T02:53:15.970Z" agent="5.0 (Macintosh; Intel Mac OS X 10_15_7) AppleWebKit/537.36 (KHTML, like Gecko) Chrome/92.0.4515.159 Safari/537.36" etag="-K1M-3H_7l-jlBRbkhWA" version="15.0.5" type="github">
  <diagram id="C5RBs43oDa-KdzZeNtuy" name="Page-1">
    <mxGraphModel dx="1810" dy="570" grid="1" gridSize="10" guides="1" tooltips="1" connect="1" arrows="1" fold="1" page="1" pageScale="1" pageWidth="827" pageHeight="1169" math="0" shadow="0">
      <root>
        <mxCell id="WIyWlLk6GJQsqaUBKTNV-0" />
        <mxCell id="WIyWlLk6GJQsqaUBKTNV-1" parent="WIyWlLk6GJQsqaUBKTNV-0" />
        <mxCell id="bBBXWL_AHqnHA9u6XLWa-10" style="edgeStyle=orthogonalEdgeStyle;rounded=0;orthogonalLoop=1;jettySize=auto;html=1;entryX=0;entryY=0.5;entryDx=0;entryDy=0;" edge="1" parent="WIyWlLk6GJQsqaUBKTNV-1" source="bBBXWL_AHqnHA9u6XLWa-1" target="bBBXWL_AHqnHA9u6XLWa-9">
          <mxGeometry relative="1" as="geometry" />
        </mxCell>
        <mxCell id="bBBXWL_AHqnHA9u6XLWa-15" style="edgeStyle=orthogonalEdgeStyle;rounded=0;orthogonalLoop=1;jettySize=auto;html=1;entryX=0.5;entryY=0;entryDx=0;entryDy=0;" edge="1" parent="WIyWlLk6GJQsqaUBKTNV-1" source="bBBXWL_AHqnHA9u6XLWa-1" target="bBBXWL_AHqnHA9u6XLWa-12">
          <mxGeometry relative="1" as="geometry" />
        </mxCell>
        <mxCell id="bBBXWL_AHqnHA9u6XLWa-1" value="serverless&amp;nbsp;&lt;br&gt;sendMsg robot" style="rounded=1;whiteSpace=wrap;html=1;" vertex="1" parent="WIyWlLk6GJQsqaUBKTNV-1">
          <mxGeometry x="-470" y="320" width="140" height="70" as="geometry" />
        </mxCell>
        <mxCell id="bBBXWL_AHqnHA9u6XLWa-3" style="edgeStyle=orthogonalEdgeStyle;rounded=0;orthogonalLoop=1;jettySize=auto;html=1;exitX=1;exitY=0.5;exitDx=0;exitDy=0;" edge="1" parent="WIyWlLk6GJQsqaUBKTNV-1" source="bBBXWL_AHqnHA9u6XLWa-2" target="bBBXWL_AHqnHA9u6XLWa-1">
          <mxGeometry relative="1" as="geometry" />
        </mxCell>
        <mxCell id="bBBXWL_AHqnHA9u6XLWa-2" value="任务调度平台" style="rounded=1;whiteSpace=wrap;html=1;" vertex="1" parent="WIyWlLk6GJQsqaUBKTNV-1">
          <mxGeometry x="-750" y="325" width="120" height="60" as="geometry" />
        </mxCell>
        <mxCell id="bBBXWL_AHqnHA9u6XLWa-4" value="定时触发 /doInspection" style="text;html=1;strokeColor=none;fillColor=none;align=center;verticalAlign=middle;whiteSpace=wrap;rounded=0;" vertex="1" parent="WIyWlLk6GJQsqaUBKTNV-1">
          <mxGeometry x="-620" y="330" width="130" height="20" as="geometry" />
        </mxCell>
        <mxCell id="bBBXWL_AHqnHA9u6XLWa-13" style="edgeStyle=orthogonalEdgeStyle;rounded=0;orthogonalLoop=1;jettySize=auto;html=1;" edge="1" parent="WIyWlLk6GJQsqaUBKTNV-1" source="bBBXWL_AHqnHA9u6XLWa-9">
          <mxGeometry relative="1" as="geometry">
            <mxPoint x="-330" y="355" as="targetPoint" />
          </mxGeometry>
        </mxCell>
        <mxCell id="bBBXWL_AHqnHA9u6XLWa-9" value="天画平台" style="rounded=1;whiteSpace=wrap;html=1;" vertex="1" parent="WIyWlLk6GJQsqaUBKTNV-1">
          <mxGeometry x="-160" y="325" width="120" height="60" as="geometry" />
        </mxCell>
        <mxCell id="bBBXWL_AHqnHA9u6XLWa-11" value="执行天画任务" style="text;html=1;align=center;verticalAlign=middle;resizable=0;points=[];autosize=1;strokeColor=none;fillColor=none;" vertex="1" parent="WIyWlLk6GJQsqaUBKTNV-1">
          <mxGeometry x="-280" y="330" width="90" height="20" as="geometry" />
        </mxCell>
        <mxCell id="bBBXWL_AHqnHA9u6XLWa-12" value="sendDataToRobot&lt;br&gt;向钉钉机器人发送消息" style="rounded=1;whiteSpace=wrap;html=1;" vertex="1" parent="WIyWlLk6GJQsqaUBKTNV-1">
          <mxGeometry x="-480" y="510" width="160" height="60" as="geometry" />
        </mxCell>
        <mxCell id="bBBXWL_AHqnHA9u6XLWa-14" value="查询任务执行结果" style="text;html=1;align=center;verticalAlign=middle;resizable=0;points=[];autosize=1;strokeColor=none;fillColor=none;" vertex="1" parent="WIyWlLk6GJQsqaUBKTNV-1">
          <mxGeometry x="-290" y="360" width="110" height="20" as="geometry" />
        </mxCell>
        <mxCell id="bBBXWL_AHqnHA9u6XLWa-16" value="天画任务执行失败" style="text;html=1;align=center;verticalAlign=middle;resizable=0;points=[];autosize=1;strokeColor=none;fillColor=none;" vertex="1" parent="WIyWlLk6GJQsqaUBKTNV-1">
          <mxGeometry x="-400" y="440" width="110" height="20" as="geometry" />
        </mxCell>
      </root>
    </mxGraphModel>
  </diagram>
</mxfile>
